<?xml version="1.0" encoding="utf-8" ?>
<svg xmlns="http://www.w3.org/2000/svg" xmlns:xlink="http://www.w3.org/1999/xlink" width="500" height="500">
	<path fill="#E8C499" d="M166.528 53.8363C169.479 50.5371 172.16 47.0695 175.341 43.9687C194.12 25.6659 217.635 15.5992 243.803 14.1415C253.238 13.6159 263.24 13.9507 272.494 15.9303C273.772 16.2036 275.693 16.439 276.698 17.2941C277.039 17.5843 276.925 17.4651 277.038 17.9616C275.539 19.7288 262.561 20.6002 259.483 21.2947C255.841 22.1509 252.262 23.2556 248.771 24.6009C217.801 36.3495 195.88 64.6785 189.663 96.8752C188.149 104.718 187.431 113.032 188.081 121.011C190.179 146.762 201.777 172.124 221.71 188.974C239.523 204.032 258.145 211.831 281.434 213.683C287.834 214.192 294.403 214.39 300.803 213.846C301.488 213.788 302.158 213.742 302.846 213.743C302.675 214.386 302.703 214.471 302.114 214.829C300.037 216.096 297.593 216.959 295.375 217.964C292.777 219.141 290.214 220.406 287.55 221.433C277.238 225.406 265.395 227.838 254.34 228.06C232.872 227.885 214.842 223.358 196.288 212.274C171.414 197.727 153.435 173.788 146.397 145.845C139.686 119.02 144.506 89.122 158.689 65.4838C161.128 61.4872 163.744 57.6009 166.528 53.8363Z"/>
	<path fill="#E8C499" d="M322.371 337.127C322.848 337.171 323.204 337.196 323.642 337.414C324.637 337.907 325.546 341.62 325.938 342.699C327.916 348.139 332.353 351.668 337.504 354.045C347.331 358.581 357.811 357.357 367.669 353.683C369.624 355.798 371.117 358.468 372.729 360.854L381.342 373.517C389.162 384.848 397.366 395.885 405.487 406.996C375.923 401.028 335.835 405.25 307.668 416.009C303.643 417.546 299.758 419.57 295.904 421.485C281.665 429.354 269.491 440.483 260.38 453.961C257.422 458.246 255.008 462.921 251.953 467.126C252.076 463.326 252.578 459.513 252.75 455.704C253.067 448.718 253.026 441.728 253.012 434.737C252.993 426.871 252.906 419.005 252.749 411.141C252.634 403.089 252.143 394.676 253.957 386.771C255.91 378.261 260.405 370.3 266.121 363.755C277.894 350.275 294.777 342.758 311.973 338.987C315.41 338.233 318.853 337.377 322.371 337.127ZM353.579 388.392C345.626 388.789 337.698 389.289 329.838 390.634C308.214 394.332 284.551 403.814 269.558 420.419C268.575 421.508 267.534 422.673 266.976 424.045L267.183 424.237C270.251 422.88 272.409 419.654 274.898 417.472C292.302 403.424 306.357 397.551 328.246 393.452C336.487 391.889 344.796 390.713 353.147 389.928C356.399 389.64 366.264 389.736 368.402 388.59C365.886 387.629 356.612 388.178 353.579 388.392ZM269.839 411.35C286.547 393.149 306.152 384.819 330.125 380.641C336.433 379.541 342.746 378.987 349.132 378.576C352.433 378.363 356.045 378.436 359.293 377.889C359.702 377.82 359.913 377.898 360.076 377.48C357.634 376.309 353.54 376.755 350.874 376.861C343.202 377.186 335.596 377.623 328.007 378.851C307.179 382.222 286.182 391.152 271.753 406.921C269.065 409.859 266.239 413.223 264.841 417.005C266.66 415.266 268.229 413.279 269.839 411.35ZM267.799 402.482C281.872 383.727 307.247 371.351 330.072 368.099C334.936 367.406 339.994 367.445 344.754 366.172C344.569 365.917 344.691 365.996 344.335 365.938C342.64 365.661 340.923 365.796 339.216 365.892C313.522 367.325 288.307 376.866 270.856 396.356C268.8 398.652 265.69 402.241 265.219 405.408C266.197 405.202 267.239 403.322 267.799 402.482ZM267.204 390.316C279.18 376.651 293.044 365.767 310.766 360.74C314.63 359.644 331.933 357.143 333.777 355.551C333.369 355.157 333.208 355.263 332.661 355.266C332.382 355.268 332.133 355.295 331.861 355.354C310.315 356.622 286.934 365.791 272.368 382.107C271.072 383.559 266.265 389.054 266.15 390.903C266.145 390.974 266.16 391.046 266.165 391.117C266.686 390.973 266.864 390.72 267.204 390.316Z"/>
	<path fill="#E8C499" d="M112.345 385.561C115.835 380.271 119.635 375.172 123.19 369.922C126.401 365.179 129.39 360.211 132.728 355.567C133.183 354.935 133.618 354.289 134.275 353.861C137.237 354.174 140.115 355.482 143.035 356.099C151.341 357.855 162.321 356.849 169.105 351.42C171.571 349.487 173.642 347.096 175.205 344.379C175.706 343.493 178.463 337.203 178.904 337.025C179.115 336.94 179.968 337.039 180.209 337.067C182.909 337.387 185.748 338.238 188.419 338.838C207.862 343.204 227.109 352.698 239.085 369.135C243.564 375.282 247.142 382.266 248.759 389.737C251.018 400.168 249.964 411.879 249.923 422.515C249.866 437.539 249.806 452.707 250.917 467.691L250.634 467.446C246.783 464.064 244.087 458.002 241.151 453.715C237.895 448.957 234.267 444.465 230.3 440.282C211.092 419.778 189.056 411.975 161.963 407.115C146.617 404.362 130.443 403.121 114.866 404.01C110.506 404.259 106.078 404.732 101.81 405.676C100.609 405.942 98.1372 407.139 97.1011 406.9C97.062 406.132 97.5621 405.448 97.9097 404.765C103.247 399.15 107.712 391.833 112.345 385.561ZM133.269 388.134L132.516 388.492C134.113 389.49 148.318 389.77 151.262 389.949C159.717 390.462 167.977 391.762 176.248 393.556C197.849 398.242 217.752 406.754 232.666 423.598L233.137 423.571C233.336 422.994 233.215 422.691 232.954 422.156C231.452 419.079 228.378 416.444 225.815 414.284C213.764 404.131 199.1 397.294 184.079 392.821C167.684 387.938 150.258 387.43 133.269 388.134ZM235.801 416.981L236.253 416.828C236.33 414.11 229.305 406.303 227.254 404.142C212.366 388.454 190.965 380.441 169.88 377.685C165.16 377.069 160.351 376.907 155.602 376.613C152.356 376.412 149.093 376.094 145.843 376.014C144.11 375.968 142.376 375.993 140.645 376.09L140.176 376.54C141.307 377.524 146.108 377.24 147.713 377.372C150.877 377.631 153.999 378.152 157.154 378.472C181.882 380.979 205.133 385.759 223.951 403.309C228.378 407.438 231.919 412.36 235.801 416.981ZM236.053 405.668C236.005 401.65 228.235 393.541 225.463 390.826C208.738 374.719 186.374 365.797 163.155 365.968C161.892 365.985 160.627 365.991 159.37 366.12L159.632 366.685C164.87 367.478 170.163 367.365 175.433 368.288C195.502 371.804 217.354 381.427 229.725 398.211C231.589 400.741 233.488 403.825 236.053 405.668ZM236.328 392.171C236.574 391.117 236.044 390.42 235.493 389.541C233.683 386.652 231.373 384.066 229.055 381.576C217.379 369.035 201.938 360.913 185.297 357.192C181.401 356.321 177.416 355.791 173.477 355.146C171 354.741 168.454 354.102 165.94 354.042L165.866 354.574C168.626 356.96 187.812 359.334 192.877 360.868C199.828 362.974 206.704 366.148 212.865 369.987C218.754 373.656 224.264 378.529 228.875 383.726C231.376 386.546 233.621 389.529 236.328 392.171Z"/>
	<path fill="#E8C499" d="M67.3541 464.43C68.0189 465.535 67.4756 466.895 67.2047 468.059C70.3389 467.967 73.5317 468.251 76.6732 468.296C82.4785 468.38 88.2991 468.303 94.1046 468.245C121.108 467.79 148.115 467.555 175.123 467.542L204.326 467.464C208.812 467.44 214.805 466.785 219.131 467.688C222.678 468.428 228.576 474.255 231.835 476.593C242.071 483.937 255.6 485.274 266.38 478.311C272.175 474.569 277.253 467.997 284.601 467.356C289.47 466.931 294.489 467.129 299.376 467.162C308.134 467.214 316.891 467.312 325.649 467.455L399.5 467.543L421.757 467.737C425.138 467.8 428.637 468.159 432.005 468.061C434.149 467.999 435.212 466.061 437.019 465.957C437.707 465.918 438.29 466.224 438.746 466.718C440.031 468.111 440.326 470.639 440.269 472.444C440.239 473.414 440.13 473.954 439.444 474.619C433.512 475.604 426.129 475.295 420.081 475.194C412.453 475.036 404.825 474.919 397.196 474.845L329.608 474.773L300.537 474.693C294.927 474.689 289.24 474.499 283.641 474.824C280.413 476.885 277.629 479.97 274.523 482.283C267.337 487.635 258.641 490.665 249.627 490.322C241.647 490.019 234.504 487.39 227.93 482.926C224.351 480.495 220.286 475.214 215.886 474.994C211.841 474.792 207.727 474.916 203.673 474.913L174.453 475.17L109.482 475.596L86.6647 475.805C80.9615 475.906 72.4269 476.482 67.0454 475.594C65.6342 475.361 64.1577 474.741 63.3686 473.486C62.6509 472.344 62.6244 470.925 62.9791 469.656C63.6126 467.391 65.327 465.545 67.3541 464.43Z"/>
	<path fill="#E8C499" d="M362.814 241.063C366.25 241.005 369.31 241.756 372.134 243.773C374.26 245.291 376.433 247.597 376.81 250.268C378.251 260.454 363.791 335.855 358.41 342.585C356.263 345.271 352.995 345.626 349.812 345.94C346.71 345.966 342.931 345.023 340.252 343.445C338.078 342.164 336.486 340.299 335.868 337.827C335.263 335.406 335.397 332.726 335.785 330.281C337.43 319.929 341.075 309.148 343.247 298.742C345.098 289.598 346.866 280.436 348.552 271.259C349.576 265.576 350.4 259.811 351.759 254.198C352.376 251.651 353.208 248.602 354.662 246.399C356.489 243.63 359.567 241.655 362.814 241.063ZM344.59 335.437C350.805 322.733 353.302 308.119 355.741 294.311C357.659 283.444 359.337 272.725 360.475 261.747C360.241 261.217 360.4 261.399 360.09 261.134C358.566 264.14 358.334 268.76 357.7 272.08C356.973 275.801 356.208 279.515 355.406 283.221C353.022 294.198 350.248 305.088 347.771 316.043C346.409 322.068 344.595 328.98 344.274 335.129L344.59 335.437Z"/>
	<path fill="#E8C499" d="M135.082 241.298C138.331 241.1 141.356 241.553 144.117 243.416C147.327 245.58 148.954 249.401 150.078 252.979C152.011 259.127 152.685 265.654 153.73 271.994C154.916 279.185 156.317 286.371 157.732 293.52C158.857 299.206 159.952 305.031 161.431 310.633C162.966 316.444 164.891 322.27 166.116 328.146C166.883 331.822 167.737 337.4 165.453 340.709C163.46 343.597 159.775 344.99 156.442 345.544C153.126 345.975 149.863 346.194 146.752 344.699C143.477 343.125 142.222 340.118 141.12 336.87C138.101 327.968 122.373 253.177 124.929 248.237C126.645 244.919 131.631 242.338 135.082 241.298ZM158.998 336.908C158.854 331.303 155.986 322.13 154.59 316.389C151.327 302.979 147.765 289.421 145.529 275.804C145.027 272.747 143.565 261.336 141.908 259.592C141.85 259.531 141.777 259.485 141.712 259.431C140.971 262.81 142.855 271.911 143.416 275.682C146.006 293.115 147.847 308.826 153.73 325.63C154.899 328.968 156.039 332.546 157.906 335.566C158.22 336.074 158.541 336.517 158.998 336.908Z"/>
	<path fill="#E8C499" d="M200.8 124.985C206.463 123.373 211.879 120.92 217.635 119.367C227.757 116.721 238.15 115.245 248.609 114.968C253.559 114.848 258.513 115.133 263.462 115.03C266.816 115.385 270.195 115.42 273.535 115.904C298.101 118.511 321.613 129.751 340.988 144.749C365.615 163.919 383.173 190.73 390.903 220.966C392.914 229.096 393.763 237.256 394.812 245.54C391.605 244.986 388.328 243.939 385.066 243.973C384.013 239.199 383.475 234.272 382.613 229.455C381.075 220.864 378.748 212.192 375.364 204.138C361.943 172.194 334.355 146.693 302.458 133.676C270.509 120.451 234.569 120.709 202.814 134.393C201.847 131.369 201.288 128.118 200.8 124.985Z"/>
	<path fill="#E8C499" d="M278.406 159.601C284.289 159.239 290.344 159.525 296.24 159.567C306.527 159.545 316.814 159.671 327.097 159.944C327.678 165.753 329.049 192.708 326.848 196.266C324.879 197.047 321.264 196.543 319.099 196.495L317.236 192.159C316.496 190.806 315.586 189.552 314.715 188.28C305.22 187.662 295.437 189.12 286.008 187.815C284.816 190.882 283.705 193.959 281.353 196.343C278.548 197.096 275.823 197.028 272.973 196.616C272.402 191.394 272.575 186.071 272.572 180.822C272.568 173.962 272.511 167.047 272.901 160.198C274.728 159.956 276.574 159.799 278.406 159.601ZM316.062 168.726C316.998 168.633 318.018 168.646 318.829 168.127C319.043 167.487 319.06 167.525 318.763 166.921C316.238 165.565 288.439 166.203 283.86 166.342C282.751 166.428 281.191 166.382 280.44 167.339C280.386 167.407 280.351 167.487 280.306 167.561C280.671 168.146 281.069 168.229 281.713 168.396C287.346 169.858 309.159 168.792 316.062 168.726ZM284.482 179.739C285.327 181.934 287.562 183.269 289.895 182.971C292.674 182.617 294.649 180.092 294.323 177.309C293.997 174.527 291.491 172.527 288.705 172.825C287.127 172.994 285.718 173.887 284.89 175.241C284.063 176.596 283.912 178.258 284.482 179.739ZM312.632 182.837C315.306 182.179 316.942 179.48 316.288 176.806C315.635 174.131 312.938 172.491 310.263 173.141C307.582 173.792 305.938 176.495 306.592 179.175C307.247 181.855 309.953 183.495 312.632 182.837Z"/>
	<path fill="#E8C499" d="M207.031 245.899C209.235 246.505 210.632 249.022 211.506 250.984C214.544 257.807 215.539 266.044 216.862 273.337L221.005 295.654C221.541 298.493 221.944 303.644 223.682 305.886C224.102 305.492 226.082 288.802 226.503 286.493C227.096 283.241 229.384 268.879 232.242 267.324C233.012 266.905 233.801 266.957 234.623 267.165C242.401 269.136 242.848 278.088 244.986 284.386C245.847 286.923 247.152 289.153 248.494 291.452C251.771 286.271 253.886 280.22 258.108 275.686C259.496 274.196 261.685 272.001 263.848 272.029C268.878 272.094 270.432 282.584 273.488 285.585C275.412 287.473 279.23 287.173 281.739 287.093C281.708 287.167 281.677 287.241 281.645 287.314L281.483 287.68C280.714 289.445 279.468 291.32 277.641 292.129C276.369 292.692 275.036 292.57 273.773 292.052C268.228 289.776 264.836 282.09 262.701 276.982C260.804 281.411 255.411 293.695 251.235 296.039C250.205 296.617 249.016 296.791 247.878 296.443C244.553 295.427 242.268 291.249 240.765 288.373C238.567 283.836 236.923 276.442 235.562 271.39C231.831 281.526 231.386 292.775 228.764 303.254C228.051 306.107 226.838 311.369 224.135 312.985C223.332 313.111 222.736 313.055 222.043 312.618C219.864 311.244 218.633 307.113 217.892 304.71C216.137 299.02 215.458 292.934 214.345 287.093C212.952 279.79 211.249 272.536 210.122 265.184C209.493 261.086 209.205 256.971 208.425 252.889C207.355 255.591 207.106 258.993 206.721 261.86C205.672 269.674 205.075 280.204 202.579 287.455C202.005 289.123 200.739 292.623 199.036 293.334C195.808 294.682 192.979 283.762 191.31 281.848C189.834 280.155 184.598 279.313 182.416 279.165C180.605 279.042 177.564 279.412 175.936 278.598L176.113 278.265C179.03 276.853 183.623 276.905 186.829 277.146C191.293 277.482 194.763 279.716 196.667 283.813C197.132 284.812 197.444 286.136 198.159 286.97C198.969 285.39 199.157 282.946 199.452 281.164C200.152 276.942 200.577 272.66 201.006 268.403C201.652 261.976 201.866 250.374 207.031 245.899Z"/>
	<path fill="#E8C499" d="M401.572 258.427C402.15 258.987 402.716 259.56 403.269 260.144C411.144 268.457 414.769 279.828 414.915 291.119C414.95 293.789 414.583 296.474 414.51 299.146C411.071 314.263 405.467 326.02 391.904 334.556C390.289 335.563 388.623 336.488 386.913 337.324C386.838 336.746 386.855 336.133 386.834 335.549C387.759 332.651 388.322 329.571 389.044 326.611C390.327 321.498 391.562 316.373 392.747 311.237C395.897 299.992 397.267 287.792 398.977 276.261C399.851 270.372 401.181 264.357 401.572 258.427Z"/>
	<path fill="#E8C499" d="M87.2215 289.021C87.8372 279.989 90.2081 271.805 95.6822 264.461C96.7013 263.094 97.7713 261.526 99.0981 260.434C99.5995 260.022 99.8474 259.875 100.492 259.916C101.967 261.992 102.801 276.719 103.281 280.3C104.873 292.219 107.078 304.047 109.888 315.738C111.379 321.863 113.416 327.99 114.723 334.132C115.299 335.406 115.605 336.767 115.96 338.114C111.17 335.401 106.421 332.206 102.489 328.345C91.6113 317.664 87.3347 303.984 87.2215 289.021Z"/>
	<path fill="#E8C499" d="M376.177 412.114C383.736 411.745 390.94 412.429 398.411 413.514C399.785 413.714 401.627 413.769 402.914 414.211C403.643 414.462 404.296 414.923 404.873 415.426C406.487 416.829 410.447 422.663 410.603 424.746C409.069 425.473 404.087 423.744 402.284 423.437C370.11 417.961 332.816 420.331 302.998 434.343C295 438.102 287.795 442.854 280.612 447.962C275.186 451.75 270.163 456.152 265.363 460.696C263.802 462.174 261.315 465.468 259.356 466.09L259.023 465.873C259.561 463.995 264.795 458.177 266.396 456.382C289.12 430.892 320.238 418.233 353.589 413.908C361.098 412.935 368.626 412.547 376.177 412.114Z"/>
	<path fill="#E8C499" d="M385.064 249.873C387.256 250.061 389.693 251.467 391.501 252.675C392.902 253.612 394.302 254.652 394.581 256.415C395.001 259.079 394.075 262.091 393.827 264.773C393.368 269.728 392.843 274.722 392.107 279.645C390.044 293.426 382.924 332.019 375.688 342.434C375.441 342.687 375.196 342.95 374.909 343.16C373.846 343.937 372.446 343.978 371.208 343.678C370.134 343.418 369.086 342.744 368.534 341.768C366.841 338.772 369.239 331.752 370.037 328.605C373.898 313.369 377.853 298.193 380.345 282.656C381.475 275.612 382.276 268.503 383.206 261.43C383.706 257.628 384.062 253.571 385.064 249.873Z"/>
	<path fill="#E8C499" d="M116.075 250.751C116.157 250.768 116.242 250.772 116.32 250.801C116.847 250.997 116.94 251.156 117.116 251.672C118.442 255.561 118.325 260.346 118.698 264.412C119.082 268.208 119.596 271.99 120.238 275.752C121.314 282.205 122.418 288.721 123.848 295.104C125.48 302.386 135.58 337.729 133.139 342.263C132.738 343.007 131.989 343.521 131.19 343.753C129.602 344.215 128.306 343.936 126.914 343.131C126.717 342.941 126.619 342.857 126.449 342.66C122.771 338.405 121.354 331.129 119.806 325.819C114.305 306.953 109.86 287.365 108.287 267.741C107.947 263.499 107.575 259.229 107.799 254.972C110.492 252.95 112.774 251.534 116.075 250.751Z"/>
	<path fill="#E8C499" d="M97.8588 414.444C127.372 409.064 168.064 413.693 195.301 425.969C195.57 426.081 195.836 426.194 196.101 426.319C211.126 433.43 225.132 444.168 235.427 457.254C237.553 459.956 240.051 463.106 241.199 466.368C238.876 464.104 236.886 461.445 234.644 459.089C231.231 455.502 227.419 452.284 223.558 449.191C192.173 424.054 154.985 419.188 116 421.427C111.16 421.724 106.342 422.295 101.567 423.137C98.7892 423.647 96.0162 424.421 93.2213 424.8C92.5456 424.891 92.0034 424.955 91.3348 424.769C91.5427 423.736 92.6168 422.612 93.0662 421.585C93.0975 421.514 93.1271 421.442 93.1575 421.37C95.0472 419.25 95.7385 416.4 97.8588 414.444Z"/>
	<path fill="#E8C499" d="M366.502 424.368C373.948 424.266 381.391 424.731 388.767 425.758C393.531 426.41 411.938 429.406 414.395 432.725C415.535 434.264 419.29 439.339 419.072 440.902C418.903 440.959 418.744 441.078 418.566 441.073C417.713 441.052 409.246 438.363 407.441 437.921C399.956 436.091 392.156 434.802 384.499 433.958C357.897 431.027 327.615 432.553 302.687 443.108C292.259 447.441 282.114 453.264 272.861 459.734C270.134 461.641 267.226 464.712 264.666 466.265L264.616 465.935C265.22 464.87 265.893 463.93 266.731 463.037C270.501 459.022 279.347 452.637 284.212 449.378C310.425 431.816 335.078 425.098 366.502 424.368Z"/>
	<path fill="#E8C499" d="M82.9086 441.124C84.2007 438.658 86.5042 433.922 88.2538 431.931C91.1053 428.686 121.656 425.016 127.367 424.658C164.458 422.332 200.434 432.929 228.553 457.646L226.968 458.423C222.088 455.126 217.225 451.772 212.041 448.964C181.371 432.354 146.075 430.106 112.058 435.022C102.27 436.436 92.4005 438.314 82.9086 441.124Z"/>
	<path fill="#E8C499" d="M328.073 29.9225C328.549 30.3255 328.716 30.7572 328.808 31.3619C330.21 40.5788 329.921 49.5677 334.47 58.1697C338.494 65.7779 345.971 68.7218 353.782 71.1052C350.695 71.8897 347.549 72.6216 344.659 73.9901C332.901 79.5571 331.375 92.2307 330.137 103.803C329.929 105.751 329.915 108.503 328.425 109.936C327.474 107.359 327.255 104.254 326.875 101.531C325.176 89.3895 324.003 78.5828 311.29 73.4357C309.693 72.7892 304.236 71.9534 303.45 70.7464C304.691 70.0695 306.451 69.7762 307.828 69.3567C309.756 68.7696 311.689 67.911 313.443 66.9212C323.122 61.461 325.775 50.1009 326.883 39.8513C327.232 36.626 327.205 33.0435 328.073 29.9225Z"/>
	<path fill="#E8C499" d="M74.5464 457.652C76.2764 454.701 77.4057 450.675 79.6029 448.126C84.273 442.708 113.731 438.316 121.701 437.567C160.33 433.938 198.681 439.069 229.491 464.573C228.547 464.935 228.207 464.631 227.286 464.537C225.16 463.374 223.15 461.591 221.1 460.244C216.363 457.16 211.277 454.648 205.949 452.761C196.179 449.251 186.641 446.517 176.338 444.992C146.518 440.575 102.127 444.664 74.5464 457.652Z"/>
	<path fill="#E8C499" d="M360.794 436.383C375.597 435.652 392.637 438.515 406.998 442.018C410.829 442.953 414.899 443.83 418.516 445.426C423.99 447.841 426.741 453.382 428.782 458.758C426.481 457.359 424.416 455.888 421.941 454.758C415.673 451.897 408.823 450.295 402.132 448.77C379.115 443.296 355.326 441.828 331.811 444.432C328.295 444.636 324.586 445.391 321.127 446.046C306.654 448.785 292.721 453.318 279.791 460.48C276.94 462.06 274.317 464.107 271.561 465.855L271.521 465.384C271.761 464.834 271.992 464.403 272.419 463.973C274.895 461.482 278.423 459.475 281.36 457.547C304.396 442.431 333.632 436.928 360.794 436.383Z"/>
	<path fill="#E8C499" d="M139.461 164.112C141.915 165.171 144.588 169.401 145.631 171.754C143.436 175.529 140.362 178.945 137.964 182.64C130.345 194.38 124.646 206.592 121.053 220.132C119.824 224.771 118.871 229.479 118.2 234.231C117.79 237.069 117.766 240.179 116.874 242.908C116.84 243.013 116.804 243.116 116.769 243.22C115.322 243.71 113.803 243.949 112.306 244.237C110.742 244.583 109.238 245.249 107.746 245.826C107.843 221.908 115.923 198.848 128.845 178.878C132.12 173.819 135.874 168.958 139.461 164.112Z"/>
	<path fill="#E8C499" d="M391.936 93.2445C392.006 92.4484 391.96 91.7048 392.551 91.1002C393.071 91.2699 392.907 91.1136 393.157 91.6216C394.245 93.8284 394.496 96.9911 394.988 99.4046C396.737 108.002 401.206 113.518 409.406 116.704C411.445 117.496 413.566 118.129 415.644 118.814C407.526 121.602 401.448 123.541 397.5 131.855C395.322 136.44 394.688 141.861 393.678 146.787C391.908 145.377 391.369 132.312 385.626 126.238C383.765 124.271 381.591 122.946 379.277 121.581C377.557 120.567 373.311 120.166 372.3 118.696C373.334 117.384 382.135 117.041 387.13 109.298C390.39 105.327 391.856 98.2628 391.936 93.2445Z"/>
	<path fill="#E8C499" d="M108.796 451.167C117.318 449.577 125.795 448.199 134.446 447.509C153.466 445.993 184.831 446.867 202.297 455.189L202.505 455.622L202.34 455.834C198.98 455.805 195.304 454.425 192.009 453.72C188.298 452.948 184.552 452.352 180.784 451.934C162.542 449.784 143.908 450.6 125.697 452.778C120.23 453.443 114.795 454.357 109.411 455.518C103.387 456.879 77.2077 465.089 72.6144 463.595L72.4215 463.177C74.3124 460.019 86.527 457.297 90.2822 455.916C96.2849 453.979 102.622 452.458 108.796 451.167Z"/>
	<defs>
		<linearGradient id="gradient_0" gradientUnits="userSpaceOnUse" x1="367.69543" y1="446.65924" x2="364.90079" y2="464.5665">
			<stop offset="0" stop-color="#E8BF96"/>
			<stop offset="1" stop-color="#E8D7AE"/>
		</linearGradient>
	</defs>
	<path fill="url(#gradient_0)" d="M301.151 454.534C311.933 450.329 323.568 448.902 335.028 447.966C341.624 447.428 348.341 446.706 354.962 446.7C375.294 446.682 404.68 450.713 423.224 458.753C425.024 459.533 429.87 461.53 430.52 463.513C430.551 463.607 430.559 463.707 430.578 463.804C430.162 464.195 430.088 464.151 429.536 464.121C426.172 463.935 420.865 461.675 417.383 460.67C412.549 459.315 407.681 458.085 402.783 456.982C371.828 450.021 334.2 447.175 303.271 455.394C302.472 455.27 301.853 454.908 301.151 454.534Z"/>
	<path fill="#E8C499" d="M297.637 264.317C297.879 264.359 297.91 264.347 298.16 264.485C301.481 266.321 305.413 278.959 306.198 282.727C307.142 281.766 308.208 280.828 309.363 280.131C314.561 276.993 321.413 278.13 326.976 279.549C323.984 280.606 320.809 280.581 317.794 281.468C313.51 282.73 311.575 285.766 309.542 289.437C307.965 292.798 306.437 296.239 304.664 299.5C302.753 294.792 299.574 284.445 298.749 279.544C297.88 281.411 296.983 283.423 295.649 285.013C295.023 285.758 294.382 286.331 293.384 286.429C292.852 286.111 292.651 285.917 292.468 285.305C291.347 281.563 295.618 267.983 297.637 264.317Z"/>
	<path fill="#E8C499" d="M72.1202 165.006L72.1251 164.42C73.62 162.996 76.5744 161.996 78.3993 160.697C81.7993 158.277 83.3788 155.312 84.4363 151.341C84.7905 150.011 85.0545 148.617 85.6623 147.378C87.5822 148.819 88.5298 156.581 92.0688 159.866C94.4834 162.107 97.73 163.222 100.527 164.884C95.4636 166.482 91.6229 168.109 89.0539 173.138C88.2422 174.727 86.8449 180.33 86.0847 181.044L85.6478 180.909L85.3613 180.325C84.8706 178.004 84.0214 175.428 83.0109 173.271C80.7206 168.382 76.8408 166.748 72.1202 165.006Z"/>
	<path fill="#E8C499" d="M104.68 76.3438C107.158 82.8172 107.579 88.7228 114.734 91.9091C116.286 92.5999 117.913 93.0724 119.487 93.6985C114.308 95.5954 110.314 97.4902 107.869 102.779C106.926 104.817 106.32 109.01 105.575 110.148L105.175 110.161C104.912 109.797 104.671 109.449 104.443 109.06C104.187 107.332 103.358 105.356 102.653 103.761C100.643 99.2144 97.8535 96.6417 93.2471 94.8821C92.0474 94.4554 90.8501 94.0219 89.6554 93.5817C91.9742 92.9606 94.0477 92.3462 96.15 91.1617C96.2628 91.1102 96.3795 91.0664 96.4885 91.0072C100.481 88.838 102.429 84.698 103.56 80.5167C104.067 79.1711 104.232 77.7153 104.68 76.3438Z"/>
	<path fill="#E8C499" d="M415.082 185.633C421.032 182.568 423.047 182.27 425.323 175.13C425.644 174.123 425.857 173.175 426.421 172.268L426.783 172.365C429.943 181.476 430.626 180.996 438.869 185.616C434.486 186.66 431.122 188.688 428.751 192.608C427.671 194.393 427.081 197.606 425.744 198.965L425.39 198.955C425.202 197.257 425.135 195.407 424.736 193.752C424.201 191.327 423.105 189.257 421.002 187.876C419.092 186.932 417.06 186.396 415.082 185.633Z"/>
	<path fill="#E8C499" d="M309.894 190.606C310.661 190.537 311.674 190.386 312.412 190.636C314.398 191.311 315.735 194.773 316.686 196.542C308.805 196.552 300.798 196.972 292.938 196.626C291.132 196.571 289.008 196.701 287.26 196.285C286.471 196.098 286.165 195.802 285.74 195.133C285.575 193.557 286.612 192.277 287.394 190.987C294.916 191.19 302.38 190.99 309.894 190.606Z"/>
	<path fill="#E8C499" d="M260.533 56.5213C261.784 58.9617 262.961 61.7241 264.898 63.7022C266.006 64.8348 269.328 66.2717 269.772 67.0976C269.137 68.7343 266.164 69.6209 264.965 71.0717C263.227 73.1761 262.109 76.7997 260.812 78.3046C260.267 76.9604 259.853 75.5556 259.271 74.2278C257.897 71.091 255.807 69.3435 252.661 68.1209L252.032 67.5795L252.06 67.0743C252.951 66.3492 254.07 66.1395 255.056 65.5749C258.475 63.6162 259.733 60.1438 260.533 56.5213Z"/>
	<path fill="#E8C499" d="M251.385 325.671C252.584 326.647 253.26 329.441 254.35 330.807C255.61 332.386 257.45 333.468 259.11 334.575C255.1 336.723 253.492 338.697 251.768 342.907C248.311 339.168 248.606 337.691 243.775 334.394C247.578 331.942 249.205 329.499 251.385 325.671Z"/>
	<path fill="#E8C499" d="M245.967 160.653C248.399 159.764 251.09 161.028 251.957 163.468C252.824 165.909 251.534 168.588 249.086 169.432C246.67 170.264 244.034 168.995 243.178 166.587C242.323 164.179 243.567 161.532 245.967 160.653Z"/>
	<path fill="#E8C499" d="M153.508 218.941C153.842 218.936 154.169 218.927 154.499 218.984C155.779 219.207 157.164 219.887 157.931 220.962C158.629 221.942 158.821 223.108 158.6 224.279C158.277 225.988 157.258 226.824 155.873 227.748C155.584 227.832 155.304 227.922 154.999 227.914C153.956 227.884 152.607 227.362 151.939 226.536C151.062 225.452 150.892 223.999 151.071 222.659C151.307 220.892 152.129 219.986 153.508 218.941Z"/>
	<path fill="#3B323B" fill-opacity="0.023529412" d="M90.2822 455.916L90.1871 455.675L90.4021 455.297C90.8566 455.236 91.2106 455.091 91.6307 454.911C91.5398 454.683 86.7528 455.588 85.808 454.945C85.4953 454.732 85.6023 454.729 85.5601 454.295C86.0066 453.999 99.1746 451.181 100.273 451.061L100.497 451.501C104.104 451.215 111.352 447.178 114.705 448.226L114.67 448.696C113.056 450.073 107.612 450.173 105.321 450.632L105.258 450.921C106.588 451.42 107.6 450.561 108.796 451.167C102.622 452.458 96.2849 453.979 90.2822 455.916ZM92.539 454.734C94.7204 454.106 96.9181 453.549 99.1017 452.936C99.8739 452.719 100.77 452.825 101.437 452.354L100.926 451.87L100.474 451.898L100.472 452.217C100.398 452.223 100.325 452.227 100.251 452.233C97.6635 452.447 95.0753 453.454 92.5575 454.077L92.3826 453.644C92.2291 454.135 92.2335 454.151 92.4132 454.634L92.539 454.734Z"/>
	<path fill="#E8C499" d="M351.767 213.604C353.067 213.165 354.503 213.473 355.509 214.407C356.515 215.34 356.929 216.75 356.588 218.079C356.247 219.408 355.205 220.444 353.874 220.778C351.926 221.267 349.939 220.131 349.373 218.203C348.807 216.276 349.864 214.246 351.767 213.604Z"/>
	<path fill="#E8C499" d="M282.735 273.864C284.173 274.34 285.409 275.286 286.243 276.55C286.998 277.689 287.453 278.963 287.16 280.332C286.951 281.307 286.541 281.961 285.726 282.52C284.536 282.499 283.236 282.402 282.326 281.531C281.428 280.67 280.949 279.359 280.991 278.125C281.043 276.579 281.603 274.928 282.735 273.864Z"/>
	<path fill="#E9D7BE" fill-opacity="0.98039216" d="M228.553 457.646C230.508 459.252 234.947 462.945 236.086 465.018C233.348 463.984 229.509 460.245 226.968 458.423L228.553 457.646Z"/>
	<path fill="#E9D7BE" fill-opacity="0.98431373" d="M227.286 464.537C228.207 464.631 228.547 464.935 229.491 464.573C231.174 465.84 232.802 467.16 234.132 468.808C231.48 467.73 229.528 466.302 227.286 464.537Z"/>
	<path fill="#E9D7BE" fill-opacity="0.98039216" d="M299.972 456.455C298.126 457.052 296.077 457.873 294.116 457.738L294.155 457.452C295.659 456.433 297.6 455.923 299.31 455.321L299.972 456.455Z"/>
	<path fill="#E9D7BE" fill-opacity="0.0078431377" d="M189.877 475.375C191.977 475.039 212.47 475.001 214.118 475.375C213.04 475.797 191.705 475.632 189.877 475.375Z"/>
	<path fill="#E9D7BE" d="M299.31 455.321C299.919 455.034 300.523 454.776 301.151 454.534C301.853 454.908 302.472 455.27 303.271 455.394C302.181 455.767 301.092 456.182 299.972 456.455L299.31 455.321Z"/>
	<path fill="#0B010B" fill-opacity="0.015686275" d="M96.9415 439.433C97.4802 439.361 97.699 439.31 98.2262 439.486C96.9698 440.305 94.8117 440.7 93.3223 440.986L91.7992 441.284L91.3523 441.536L90.9622 441.372L91.1571 441.032C93.0791 440.682 95.1554 440.232 96.9415 439.433Z"/>
	<path fill="#0B010B" fill-opacity="0.023529412" d="M326.443 438.233L326.551 438.331C324.893 439.166 322.858 439.038 321.054 439.679C321.026 439.255 320.994 439.475 321.196 439.029C322.953 438.614 324.643 438.38 326.443 438.233Z"/>
</svg>
