<svg xmlns="http://www.w3.org/2000/svg" xmlns:xlink="http://www.w3.org/1999/xlink" width="385" zoomAndPan="magnify" viewBox="0 0 288.75 174.749997" height="233" preserveAspectRatio="xMidYMid meet" version="1.0"><defs><clipPath id="a14aff166c"><path d="M 0.0820312 0 L 207 0 L 207 66 L 0.0820312 66 Z M 0.0820312 0 " clip-rule="nonzero"/></clipPath><clipPath id="5516e9686b"><path d="M 172 31 L 288.417969 31 L 288.417969 125 L 172 125 Z M 172 31 " clip-rule="nonzero"/></clipPath><clipPath id="0f07f979bb"><path d="M 283 106 L 287 106 L 287 174.5 L 283 174.5 Z M 283 106 " clip-rule="nonzero"/></clipPath><clipPath id="9264bcd391"><path d="M 0.0820312 171 L 288 171 L 288 174.5 L 0.0820312 174.5 Z M 0.0820312 171 " clip-rule="nonzero"/></clipPath><clipPath id="f77671e3ba"><path d="M 0.0820312 34 L 4 34 L 4 174.5 L 0.0820312 174.5 Z M 0.0820312 34 " clip-rule="nonzero"/></clipPath></defs><g clip-path="url(#a14aff166c)"><path stroke-linecap="butt" transform="matrix(0.747605, 0.0445117, -0.0445117, 0.747605, 2.391259, 0.000273526)" fill="none" stroke-linejoin="miter" d="M 1.217862 50.306779 C 85.189549 -14.101306 169.166118 -14.100845 253.137157 50.308783 " stroke="#000000" stroke-width="4" stroke-opacity="1" stroke-miterlimit="4"/></g><g clip-path="url(#5516e9686b)"><path stroke-linecap="butt" transform="matrix(0.641897, 0.385827, -0.385827, 0.641897, 190.015131, 47.51435)" fill="none" stroke-linejoin="miter" d="M 0.232894 1.985832 C 84.384467 11.809036 134.700092 11.810489 151.184239 1.987504 " stroke="#000000" stroke-width="4" stroke-opacity="1" stroke-miterlimit="4"/></g><g clip-path="url(#0f07f979bb)"><path stroke-linecap="butt" transform="matrix(0, -0.748929, 0.748929, 0, 283.221467, 172.560842)" fill="none" stroke-linejoin="miter" d="M -0.00221372 1.999233 L 86.345103 1.999233 " stroke="#000000" stroke-width="4" stroke-opacity="1" stroke-miterlimit="4"/></g><g clip-path="url(#9264bcd391)"><path stroke-linecap="butt" transform="matrix(0.748929, 0, 0, 0.748929, 0.0814314, 171.068528)" fill="none" stroke-linejoin="miter" d="M 0.000800972 2.000028 L 382.067467 2.000028 " stroke="#000000" stroke-width="4" stroke-opacity="1" stroke-miterlimit="4"/></g><g clip-path="url(#f77671e3ba)"><path stroke-linecap="butt" transform="matrix(0.00000000130713, -0.748929, 0.748929, 0.00000000130713, 0.0787286, 172.56368)" fill="none" stroke-linejoin="miter" d="M 0.00157508 2.002055 L 181.802969 2.002055 " stroke="#000000" stroke-width="4" stroke-opacity="1" stroke-miterlimit="4"/></g></svg>